<svg width="88" height="88" viewBox="0 0 88 88" fill="none" xmlns="http://www.w3.org/2000/svg">
<g clip-path="url(#clip0)">
<path d="M44.0006 0C42.1306 0 40.2468 0.673751 38.7756 2.035C38.7549 2.05563 38.7412 2.06937 38.7206 2.09L2.09056 38.885C-0.71444 41.69 -0.68694 46.2756 2.03556 49.225C2.05619 49.2456 2.06993 49.2594 2.09056 49.28L38.7206 85.91C41.5256 88.715 46.1112 88.6875 49.0606 85.965C49.0812 85.9444 49.0949 85.9306 49.1156 85.91L85.7456 49.28C88.6743 46.3512 88.7156 41.69 85.9106 38.885L49.1156 2.09C47.7131 0.6875 45.8706 0 44.0006 0ZM43.9456 3.52C44.9356 3.52 45.9324 3.85687 46.6406 4.565L83.4356 41.36C84.8587 42.7831 84.8656 45.155 83.2156 46.805L46.6956 83.38C46.6749 83.4006 46.6612 83.4212 46.6406 83.435C45.0112 84.8856 42.5981 84.8375 41.1956 83.435L4.62056 46.86C4.59993 46.8394 4.58619 46.8256 4.56556 46.805C3.84369 45.9938 3.51369 44.9831 3.52056 44C3.52056 43.7525 3.52743 43.5256 3.57556 43.285C3.71306 42.57 4.03619 41.8894 4.56556 41.36L41.1406 4.62L41.1956 4.565C41.9999 3.85 42.9762 3.52 43.9456 3.52ZM41.9106 24.64C41.3812 24.64 41.1956 25.0044 41.1956 25.355V50.875C41.1956 51.4044 41.5599 51.59 41.9106 51.59H45.9256C46.4549 51.59 46.6406 51.2256 46.6406 50.875V25.355C46.6406 24.8256 46.2762 24.64 45.9256 24.64H41.9106ZM41.9106 57.365C41.3812 57.365 41.1956 57.7294 41.1956 58.08V62.81C41.1956 63.3394 41.5599 63.525 41.9106 63.525H46.0906C46.6199 63.525 46.8056 63.1606 46.8056 62.81V58.245C46.8056 57.7156 46.4412 57.53 46.0906 57.53V57.365H41.9106Z" fill="#FF4A4A" fill-opacity="0.2"/>
<path fill-rule="evenodd" clip-rule="evenodd" d="M43.9456 3.52C44.9356 3.52 45.9324 3.85687 46.6406 4.565L83.4356 41.36C84.8587 42.7831 84.8656 45.155 83.2156 46.805L46.6956 83.38C46.6749 83.4006 46.6612 83.4212 46.6406 83.435C45.0112 84.8856 42.5981 84.8375 41.1956 83.435L4.62056 46.86L4.56556 46.805C3.84369 45.9938 3.51369 44.9831 3.52056 44C3.52056 43.7525 3.52743 43.5256 3.57556 43.285C3.71306 42.57 4.03619 41.8894 4.56556 41.36L41.1406 4.62L41.1956 4.565C41.9999 3.85 42.9762 3.52 43.9456 3.52ZM41.1956 25.355C41.1956 25.0044 41.3812 24.64 41.9106 24.64H45.9256C46.2762 24.64 46.6406 24.8256 46.6406 25.355V50.875C46.6406 51.2256 46.4549 51.59 45.9256 51.59H41.9106C41.5599 51.59 41.1956 51.4044 41.1956 50.875V25.355ZM41.1956 58.08C41.1956 57.7294 41.3812 57.365 41.9106 57.365H46.0906V57.53C46.4412 57.53 46.8056 57.7156 46.8056 58.245V62.81C46.8056 63.1606 46.6199 63.525 46.0906 63.525H41.9106C41.5599 63.525 41.1956 63.3394 41.1956 62.81V58.08Z" fill="#FF4A4A" fill-opacity="0.2"/>
<path d="M44.001 0C42.1311 0 40.2473 0.673751 38.776 2.035C38.7554 2.05563 38.7417 2.06937 38.7211 2.09L2.09105 38.885C-0.713952 41.69 -0.686452 46.2756 2.03605 49.225C2.05667 49.2456 2.07042 49.2594 2.09105 49.28L38.7211 85.91C41.526 88.715 46.1117 88.6875 49.061 85.965C49.0817 85.9444 49.0954 85.9306 49.116 85.91L85.746 49.28C88.6748 46.3512 88.716 41.69 85.911 38.885L49.116 2.09C47.7135 0.6875 45.871 0 44.001 0ZM43.946 3.52C44.936 3.52 45.9329 3.85687 46.641 4.565L83.4361 41.36C84.8592 42.7831 84.8661 45.155 83.216 46.805L46.696 83.38C46.6754 83.4006 46.6617 83.4212 46.641 83.435C45.0117 84.8856 42.5985 84.8375 41.196 83.435L4.62105 46.86C4.60042 46.8394 4.58667 46.8256 4.56605 46.805C3.84417 45.9938 3.51417 44.9831 3.52105 44C3.52105 43.7525 3.52792 43.5256 3.57605 43.285C3.71355 42.57 4.03667 41.8894 4.56605 41.36L41.141 4.62L41.196 4.565C42.0004 3.85 42.9767 3.52 43.946 3.52ZM41.911 24.64C41.3817 24.64 41.196 25.0044 41.196 25.355V50.875C41.196 51.4044 41.5604 51.59 41.911 51.59H45.926C46.4554 51.59 46.641 51.2256 46.641 50.875V25.355C46.641 24.8256 46.2767 24.64 45.926 24.64H41.911ZM41.911 57.365C41.3817 57.365 41.196 57.7294 41.196 58.08V62.81C41.196 63.3394 41.5604 63.525 41.911 63.525H46.091C46.6204 63.525 46.806 63.1606 46.806 62.81V58.245C46.806 57.7156 46.4417 57.53 46.091 57.53V57.365H41.911Z" fill="#FF4A4A"/>
</g>
<defs>
<clipPath id="clip0">
<rect width="88" height="88" fill="white"/>
</clipPath>
</defs>
</svg>
