<svg width="14" height="18" viewBox="0 0 14 18" fill="none" xmlns="http://www.w3.org/2000/svg">
<path d="M13.4799 8.99996C13.4799 5.73887 12.2298 2.6423 9.96151 0.281211L9.71261 0.0224608L7.63698 2.01371L7.88589 2.27527C9.63526 4.09637 10.5999 6.48559 10.5999 8.99996C10.5999 11.5143 9.63526 13.9036 7.88589 15.7261L7.63698 15.9862L9.71261 17.9789L9.96292 17.7187C12.2312 15.3576 13.4799 12.2611 13.4799 8.99996ZM9.15995 8.99996C9.15995 6.85684 8.3387 4.82199 6.84808 3.2709L6.59917 3.01074L4.5137 5.01184L4.76401 5.27199C5.74136 6.2873 6.27995 7.61199 6.27995 8.99996C6.27995 10.3879 5.74136 11.7126 4.76401 12.7279L4.5137 12.9881L6.59917 14.9892L6.84807 14.7304C8.3387 13.1779 9.15995 11.1431 9.15995 8.99996ZM4.83995 8.99996C4.83995 7.97621 4.44761 7.00309 3.73323 6.26059L3.48433 6.00184L0.361044 8.99996L3.48432 11.9981L3.73323 11.7393C4.44761 10.9968 4.83995 10.0237 4.83995 8.99996Z" fill="white"/>
</svg>
